<svg width="52" height="52" viewBox="0 0 52 52" fill="none" xmlns="http://www.w3.org/2000/svg">
<path d="M27.8231 0.936916C27.223 0.337009 26.4092 0 25.5607 0C24.7121 0 23.8984 0.337009 23.2983 0.936916L0.898277 23.3369C0.315372 23.9404 -0.00716997 24.7488 0.000120968 25.5878C0.00741191 26.4268 0.343952 27.2294 0.937258 27.8227C1.53056 28.416 2.33316 28.7526 3.17219 28.7599C4.01122 28.7671 4.81955 28.4446 5.42308 27.8617L6.36068 26.9241V47.9993C6.36068 48.848 6.69782 49.6619 7.29793 50.262C7.89805 50.8621 8.71198 51.1993 9.56068 51.1993H15.9607C16.8094 51.1993 17.6233 50.8621 18.2234 50.262C18.8235 49.6619 19.1607 48.848 19.1607 47.9993V41.5993C19.1607 40.7506 19.4978 39.9367 20.0979 39.3366C20.698 38.7364 21.512 38.3993 22.3607 38.3993H28.7607C29.6094 38.3993 30.4233 38.7364 31.0234 39.3366C31.6235 39.9367 31.9607 40.7506 31.9607 41.5993V47.9993C31.9607 48.848 32.2978 49.6619 32.8979 50.262C33.498 50.8621 34.312 51.1993 35.1607 51.1993H41.5607C42.4094 51.1993 43.2233 50.8621 43.8234 50.262C44.4235 49.6619 44.7607 48.848 44.7607 47.9993V26.9241L45.6983 27.8617C46.3018 28.4446 47.1101 28.7671 47.9491 28.7599C48.7882 28.7526 49.5908 28.416 50.1841 27.8227C50.7774 27.2294 51.1139 26.4268 51.1212 25.5878C51.1285 24.7488 50.806 23.9404 50.2231 23.3369L27.8231 0.936916Z" fill="black" fill-opacity="0.88"/>
</svg>
