<svg width="64" height="74" viewBox="0 0 64 74" fill="none" xmlns="http://www.w3.org/2000/svg">
<g clip-path="url(#clip0_252_23)">
<path d="M32.0143 20.1428C22.9286 20.1428 15.6 27.4714 15.6 36.5571C15.6 45.6428 22.9286 52.9714 32.0143 52.9714C41.1 52.9714 48.4286 45.6428 48.4286 36.5571C48.4286 27.4714 41.1 20.1428 32.0143 20.1428ZM32.0143 47.2285C26.1429 47.2285 21.3429 42.4428 21.3429 36.5571C21.3429 30.6714 26.1286 25.8857 32.0143 25.8857C37.9 25.8857 42.6857 30.6714 42.6857 36.5571C42.6857 42.4428 37.8857 47.2285 32.0143 47.2285ZM52.9286 19.4714C52.9286 21.6 51.2143 23.3 49.1 23.3C46.9714 23.3 45.2714 21.5857 45.2714 19.4714C45.2714 17.3571 46.9857 15.6428 49.1 15.6428C51.2143 15.6428 52.9286 17.3571 52.9286 19.4714ZM63.8 23.3571C63.5572 18.2285 62.3857 13.6857 58.6286 9.94281C54.8857 6.19996 50.3429 5.02853 45.2143 4.77139C39.9286 4.47139 24.0857 4.47139 18.8 4.77139C13.6857 5.01424 9.14286 6.18567 5.38572 9.92853C1.62857 13.6714 0.471431 18.2142 0.214288 23.3428C-0.0857117 28.6285 -0.0857117 44.4714 0.214288 49.7571C0.457146 54.8857 1.62857 59.4285 5.38572 63.1714C9.14286 66.9142 13.6714 68.0857 18.8 68.3428C24.0857 68.6428 39.9286 68.6428 45.2143 68.3428C50.3429 68.0999 54.8857 66.9285 58.6286 63.1714C62.3714 59.4285 63.5429 54.8857 63.8 49.7571C64.1 44.4714 64.1 28.6428 63.8 23.3571ZM56.9714 55.4285C55.8572 58.2285 53.7 60.3857 50.8857 61.5142C46.6714 63.1857 36.6714 62.7999 32.0143 62.7999C27.3572 62.7999 17.3429 63.1714 13.1429 61.5142C10.3429 60.3999 8.18572 58.2428 7.05715 55.4285C5.38572 51.2142 5.77143 41.2142 5.77143 36.5571C5.77143 31.9 5.4 21.8857 7.05715 17.6857C8.17143 14.8857 10.3286 12.7285 13.1429 11.6C17.3571 9.92853 27.3572 10.3142 32.0143 10.3142C36.6714 10.3142 46.6857 9.94281 50.8857 11.6C53.6857 12.7142 55.8429 14.8714 56.9714 17.6857C58.6429 21.9 58.2572 31.9 58.2572 36.5571C58.2572 41.2142 58.6429 51.2285 56.9714 55.4285Z" fill="white"/>
</g>
<defs>
<clipPath id="clip0_252_23">
<rect width="64" height="73.1428" fill="white"/>
</clipPath>
</defs>
</svg>
