<svg width="59" height="59" viewBox="0 0 59 59" fill="none" xmlns="http://www.w3.org/2000/svg">
<g clip-path="url(#clip0_167_219)">
<g filter="url(#filter0_d_167_219)">
<mask id="path-1-outside-1_167_219" maskUnits="userSpaceOnUse" x="-1" y="-1" width="61" height="61" fill="black">
<rect fill="white" x="-1" y="-1" width="61" height="61"/>
<path d="M42.4062 47.9375C41.9173 47.9375 41.4483 48.1318 41.1025 48.4775C40.7568 48.8233 40.5625 49.2923 40.5625 49.7812V50.3325C40.5625 52.1828 40.5625 53.1079 40.1684 53.7989C39.9022 54.2656 39.5156 54.6522 39.0489 54.9184C38.3579 55.3125 37.4328 55.3125 35.5825 55.3125H8.6675C6.81721 55.3125 5.89206 55.3125 5.20112 54.9184C4.73444 54.6522 4.3478 54.2656 4.08161 53.7989C3.6875 53.1079 3.6875 52.1828 3.6875 50.3325V14.75C3.6875 14.1112 3.6875 13.7918 3.73596 13.5254C3.95959 12.2964 4.92142 11.3346 6.15045 11.111C6.41679 11.0625 6.73619 11.0625 7.375 11.0625H9.21875C10.237 11.0625 11.0625 11.888 11.0625 12.9062V12.9062C11.0625 13.3952 11.2568 13.8642 11.6025 14.21C11.9483 14.5557 12.4173 14.75 12.9062 14.75H31.3438C31.8327 14.75 32.3017 14.5557 32.6475 14.21C32.9932 13.8642 33.1875 13.3952 33.1875 12.9062V12.9062C33.1875 11.888 34.013 11.0625 35.0312 11.0625H38.7188C39.737 11.0625 40.5625 11.888 40.5625 12.9062V12.9062C40.5625 13.3952 40.7568 13.8642 41.1025 14.21C41.4483 14.5557 41.9173 14.75 42.4062 14.75C42.8952 14.75 43.3642 14.5557 43.71 14.21C44.0557 13.8642 44.25 13.3952 44.25 12.9062V9.21875C44.25 8.72976 44.0557 8.26079 43.71 7.91502C43.3642 7.56925 42.8952 7.375 42.4062 7.375H35.0312C34.013 7.375 33.1875 6.54952 33.1875 5.53125V5.53125C33.1875 4.06427 32.6047 2.65738 31.5674 1.62007C30.5301 0.582758 29.1232 0 27.6562 0H16.5938C15.1268 0 13.7199 0.582758 12.6826 1.62007C11.6453 2.65738 11.0625 4.06427 11.0625 5.53125V5.53125C11.0625 6.54952 10.237 7.375 9.21875 7.375H1.84375C1.35476 7.375 0.885791 7.56925 0.54002 7.91502C0.19425 8.26079 0 8.72976 0 9.21875V57.1562C0 57.6452 0.19425 58.1142 0.54002 58.46C0.885791 58.8057 1.35476 59 1.84375 59H42.4062C42.8952 59 43.3642 58.8057 43.71 58.46C44.0557 58.1142 44.25 57.6452 44.25 57.1562V49.7812C44.25 49.2923 44.0557 48.8233 43.71 48.4775C43.3642 48.1318 42.8952 47.9375 42.4062 47.9375ZM14.75 5.53125C14.75 5.04226 14.9443 4.57329 15.29 4.22752C15.6358 3.88175 16.1048 3.6875 16.5938 3.6875H27.6562C28.1452 3.6875 28.6142 3.88175 28.96 4.22752C29.3057 4.57329 29.5 5.04226 29.5 5.53125V6.0825C29.5 7.93279 29.5 8.85794 29.1059 9.54888C28.8397 10.0156 28.4531 10.4022 27.9864 10.6684C27.2954 11.0625 26.3703 11.0625 24.52 11.0625H19.73C17.8797 11.0625 16.9546 11.0625 16.2636 10.6684C15.7969 10.4022 15.4103 10.0156 15.1441 9.54888C14.75 8.85794 14.75 7.93279 14.75 6.0825V5.53125ZM58.4616 22.6634L51.0866 15.2884C50.9154 15.1167 50.7119 14.9805 50.4879 14.8875C50.2639 14.7946 50.0238 14.7467 49.7812 14.7467C49.5387 14.7467 49.2986 14.7946 49.0746 14.8875C48.8506 14.9805 48.6471 15.1167 48.4759 15.2884L26.3509 37.4134C26.1798 37.5849 26.0442 37.7885 25.9518 38.0125C25.8594 38.2365 25.8121 38.4765 25.8125 38.7188V46.0938C25.8125 46.5827 26.0068 47.0517 26.3525 47.3975C26.6983 47.7432 27.1673 47.9375 27.6562 47.9375H35.0312C35.2735 47.9379 35.5135 47.8906 35.7375 47.7982C35.9615 47.7058 36.1651 47.5702 36.3366 47.3991L58.4616 25.2741C58.6333 25.1029 58.7695 24.8994 58.8625 24.6754C58.9554 24.4514 59.0033 24.2113 59.0033 23.9688C59.0033 23.7262 58.9554 23.4861 58.8625 23.2621C58.7695 23.0381 58.6333 22.8346 58.4616 22.6634ZM32.8714 44.25C32.5265 44.25 32.354 44.25 32.2087 44.2358C30.7822 44.0967 29.6533 42.9678 29.5142 41.5413C29.5 41.396 29.5 41.2235 29.5 40.8786V40.8786C29.5 40.7274 29.5 40.6518 29.5035 40.5789C29.5373 39.8847 29.8111 39.2238 30.2781 38.709C30.3271 38.655 30.3806 38.6015 30.4875 38.4946L47.3973 21.5848C47.6412 21.3409 47.7632 21.2189 47.8759 21.1262C48.983 20.2159 50.5795 20.2159 51.6866 21.1262C51.7993 21.2189 51.9213 21.3409 52.1652 21.5848V21.5848C52.4091 21.8287 52.5311 21.9507 52.6238 22.0634C53.5341 23.1705 53.5341 24.767 52.6238 25.8741C52.5311 25.9868 52.4091 26.1088 52.1652 26.3527L35.2554 43.2625C35.1485 43.3694 35.095 43.4229 35.041 43.4719C34.5262 43.9389 33.8653 44.2127 33.1711 44.2465C33.0982 44.25 33.0226 44.25 32.8714 44.25V44.25ZM22.125 46.0938C22.125 46.5827 21.9307 47.0517 21.585 47.3975C21.2392 47.7432 20.7702 47.9375 20.2812 47.9375H12.9062C12.4173 47.9375 11.9483 47.7432 11.6025 47.3975C11.2568 47.0517 11.0625 46.5827 11.0625 46.0938C11.0625 45.6048 11.2568 45.1358 11.6025 44.79C11.9483 44.4443 12.4173 44.25 12.9062 44.25H20.2812C20.7702 44.25 21.2392 44.4443 21.585 44.79C21.9307 45.1358 22.125 45.6048 22.125 46.0938ZM22.125 35.0312C22.125 35.5202 21.9307 35.9892 21.585 36.335C21.2392 36.6807 20.7702 36.875 20.2812 36.875H12.9062C12.4173 36.875 11.9483 36.6807 11.6025 36.335C11.2568 35.9892 11.0625 35.5202 11.0625 35.0312C11.0625 34.5423 11.2568 34.0733 11.6025 33.7275C11.9483 33.3818 12.4173 33.1875 12.9062 33.1875H20.2812C20.7702 33.1875 21.2392 33.3818 21.585 33.7275C21.9307 34.0733 22.125 34.5423 22.125 35.0312ZM31.3438 25.8125H12.9062C12.4173 25.8125 11.9483 25.6182 11.6025 25.2725C11.2568 24.9267 11.0625 24.4577 11.0625 23.9688C11.0625 23.4798 11.2568 23.0108 11.6025 22.665C11.9483 22.3193 12.4173 22.125 12.9062 22.125H31.3438C31.8327 22.125 32.3017 22.3193 32.6475 22.665C32.9932 23.0108 33.1875 23.4798 33.1875 23.9688C33.1875 24.4577 32.9932 24.9267 32.6475 25.2725C32.3017 25.6182 31.8327 25.8125 31.3438 25.8125Z"/>
</mask>
<path d="M42.4062 47.9375C41.9173 47.9375 41.4483 48.1318 41.1025 48.4775C40.7568 48.8233 40.5625 49.2923 40.5625 49.7812V50.3325C40.5625 52.1828 40.5625 53.1079 40.1684 53.7989C39.9022 54.2656 39.5156 54.6522 39.0489 54.9184C38.3579 55.3125 37.4328 55.3125 35.5825 55.3125H8.6675C6.81721 55.3125 5.89206 55.3125 5.20112 54.9184C4.73444 54.6522 4.3478 54.2656 4.08161 53.7989C3.6875 53.1079 3.6875 52.1828 3.6875 50.3325V14.75C3.6875 14.1112 3.6875 13.7918 3.73596 13.5254C3.95959 12.2964 4.92142 11.3346 6.15045 11.111C6.41679 11.0625 6.73619 11.0625 7.375 11.0625H9.21875C10.237 11.0625 11.0625 11.888 11.0625 12.9062V12.9062C11.0625 13.3952 11.2568 13.8642 11.6025 14.21C11.9483 14.5557 12.4173 14.75 12.9062 14.75H31.3438C31.8327 14.75 32.3017 14.5557 32.6475 14.21C32.9932 13.8642 33.1875 13.3952 33.1875 12.9062V12.9062C33.1875 11.888 34.013 11.0625 35.0312 11.0625H38.7188C39.737 11.0625 40.5625 11.888 40.5625 12.9062V12.9062C40.5625 13.3952 40.7568 13.8642 41.1025 14.21C41.4483 14.5557 41.9173 14.75 42.4062 14.75C42.8952 14.75 43.3642 14.5557 43.71 14.21C44.0557 13.8642 44.25 13.3952 44.25 12.9062V9.21875C44.25 8.72976 44.0557 8.26079 43.71 7.91502C43.3642 7.56925 42.8952 7.375 42.4062 7.375H35.0312C34.013 7.375 33.1875 6.54952 33.1875 5.53125V5.53125C33.1875 4.06427 32.6047 2.65738 31.5674 1.62007C30.5301 0.582758 29.1232 0 27.6562 0H16.5938C15.1268 0 13.7199 0.582758 12.6826 1.62007C11.6453 2.65738 11.0625 4.06427 11.0625 5.53125V5.53125C11.0625 6.54952 10.237 7.375 9.21875 7.375H1.84375C1.35476 7.375 0.885791 7.56925 0.54002 7.91502C0.19425 8.26079 0 8.72976 0 9.21875V57.1562C0 57.6452 0.19425 58.1142 0.54002 58.46C0.885791 58.8057 1.35476 59 1.84375 59H42.4062C42.8952 59 43.3642 58.8057 43.71 58.46C44.0557 58.1142 44.25 57.6452 44.25 57.1562V49.7812C44.25 49.2923 44.0557 48.8233 43.71 48.4775C43.3642 48.1318 42.8952 47.9375 42.4062 47.9375ZM14.75 5.53125C14.75 5.04226 14.9443 4.57329 15.29 4.22752C15.6358 3.88175 16.1048 3.6875 16.5938 3.6875H27.6562C28.1452 3.6875 28.6142 3.88175 28.96 4.22752C29.3057 4.57329 29.5 5.04226 29.5 5.53125V6.0825C29.5 7.93279 29.5 8.85794 29.1059 9.54888C28.8397 10.0156 28.4531 10.4022 27.9864 10.6684C27.2954 11.0625 26.3703 11.0625 24.52 11.0625H19.73C17.8797 11.0625 16.9546 11.0625 16.2636 10.6684C15.7969 10.4022 15.4103 10.0156 15.1441 9.54888C14.75 8.85794 14.75 7.93279 14.75 6.0825V5.53125ZM58.4616 22.6634L51.0866 15.2884C50.9154 15.1167 50.7119 14.9805 50.4879 14.8875C50.2639 14.7946 50.0238 14.7467 49.7812 14.7467C49.5387 14.7467 49.2986 14.7946 49.0746 14.8875C48.8506 14.9805 48.6471 15.1167 48.4759 15.2884L26.3509 37.4134C26.1798 37.5849 26.0442 37.7885 25.9518 38.0125C25.8594 38.2365 25.8121 38.4765 25.8125 38.7188V46.0938C25.8125 46.5827 26.0068 47.0517 26.3525 47.3975C26.6983 47.7432 27.1673 47.9375 27.6562 47.9375H35.0312C35.2735 47.9379 35.5135 47.8906 35.7375 47.7982C35.9615 47.7058 36.1651 47.5702 36.3366 47.3991L58.4616 25.2741C58.6333 25.1029 58.7695 24.8994 58.8625 24.6754C58.9554 24.4514 59.0033 24.2113 59.0033 23.9688C59.0033 23.7262 58.9554 23.4861 58.8625 23.2621C58.7695 23.0381 58.6333 22.8346 58.4616 22.6634ZM32.8714 44.25C32.5265 44.25 32.354 44.25 32.2087 44.2358C30.7822 44.0967 29.6533 42.9678 29.5142 41.5413C29.5 41.396 29.5 41.2235 29.5 40.8786V40.8786C29.5 40.7274 29.5 40.6518 29.5035 40.5789C29.5373 39.8847 29.8111 39.2238 30.2781 38.709C30.3271 38.655 30.3806 38.6015 30.4875 38.4946L47.3973 21.5848C47.6412 21.3409 47.7632 21.2189 47.8759 21.1262C48.983 20.2159 50.5795 20.2159 51.6866 21.1262C51.7993 21.2189 51.9213 21.3409 52.1652 21.5848V21.5848C52.4091 21.8287 52.5311 21.9507 52.6238 22.0634C53.5341 23.1705 53.5341 24.767 52.6238 25.8741C52.5311 25.9868 52.4091 26.1088 52.1652 26.3527L35.2554 43.2625C35.1485 43.3694 35.095 43.4229 35.041 43.4719C34.5262 43.9389 33.8653 44.2127 33.1711 44.2465C33.0982 44.25 33.0226 44.25 32.8714 44.25V44.25ZM22.125 46.0938C22.125 46.5827 21.9307 47.0517 21.585 47.3975C21.2392 47.7432 20.7702 47.9375 20.2812 47.9375H12.9062C12.4173 47.9375 11.9483 47.7432 11.6025 47.3975C11.2568 47.0517 11.0625 46.5827 11.0625 46.0938C11.0625 45.6048 11.2568 45.1358 11.6025 44.79C11.9483 44.4443 12.4173 44.25 12.9062 44.25H20.2812C20.7702 44.25 21.2392 44.4443 21.585 44.79C21.9307 45.1358 22.125 45.6048 22.125 46.0938ZM22.125 35.0312C22.125 35.5202 21.9307 35.9892 21.585 36.335C21.2392 36.6807 20.7702 36.875 20.2812 36.875H12.9062C12.4173 36.875 11.9483 36.6807 11.6025 36.335C11.2568 35.9892 11.0625 35.5202 11.0625 35.0312C11.0625 34.5423 11.2568 34.0733 11.6025 33.7275C11.9483 33.3818 12.4173 33.1875 12.9062 33.1875H20.2812C20.7702 33.1875 21.2392 33.3818 21.585 33.7275C21.9307 34.0733 22.125 34.5423 22.125 35.0312ZM31.3438 25.8125H12.9062C12.4173 25.8125 11.9483 25.6182 11.6025 25.2725C11.2568 24.9267 11.0625 24.4577 11.0625 23.9688C11.0625 23.4798 11.2568 23.0108 11.6025 22.665C11.9483 22.3193 12.4173 22.125 12.9062 22.125H31.3438C31.8327 22.125 32.3017 22.3193 32.6475 22.665C32.9932 23.0108 33.1875 23.4798 33.1875 23.9688C33.1875 24.4577 32.9932 24.9267 32.6475 25.2725C32.3017 25.6182 31.8327 25.8125 31.3438 25.8125Z" fill="black"/>
<path d="M42.4062 47.9375C41.9173 47.9375 41.4483 48.1318 41.1025 48.4775C40.7568 48.8233 40.5625 49.2923 40.5625 49.7812V50.3325C40.5625 52.1828 40.5625 53.1079 40.1684 53.7989C39.9022 54.2656 39.5156 54.6522 39.0489 54.9184C38.3579 55.3125 37.4328 55.3125 35.5825 55.3125H8.6675C6.81721 55.3125 5.89206 55.3125 5.20112 54.9184C4.73444 54.6522 4.3478 54.2656 4.08161 53.7989C3.6875 53.1079 3.6875 52.1828 3.6875 50.3325V14.75C3.6875 14.1112 3.6875 13.7918 3.73596 13.5254C3.95959 12.2964 4.92142 11.3346 6.15045 11.111C6.41679 11.0625 6.73619 11.0625 7.375 11.0625H9.21875C10.237 11.0625 11.0625 11.888 11.0625 12.9062V12.9062C11.0625 13.3952 11.2568 13.8642 11.6025 14.21C11.9483 14.5557 12.4173 14.75 12.9062 14.75H31.3438C31.8327 14.75 32.3017 14.5557 32.6475 14.21C32.9932 13.8642 33.1875 13.3952 33.1875 12.9062V12.9062C33.1875 11.888 34.013 11.0625 35.0312 11.0625H38.7188C39.737 11.0625 40.5625 11.888 40.5625 12.9062V12.9062C40.5625 13.3952 40.7568 13.8642 41.1025 14.21C41.4483 14.5557 41.9173 14.75 42.4062 14.75C42.8952 14.75 43.3642 14.5557 43.71 14.21C44.0557 13.8642 44.25 13.3952 44.25 12.9062V9.21875C44.25 8.72976 44.0557 8.26079 43.71 7.91502C43.3642 7.56925 42.8952 7.375 42.4062 7.375H35.0312C34.013 7.375 33.1875 6.54952 33.1875 5.53125V5.53125C33.1875 4.06427 32.6047 2.65738 31.5674 1.62007C30.5301 0.582758 29.1232 0 27.6562 0H16.5938C15.1268 0 13.7199 0.582758 12.6826 1.62007C11.6453 2.65738 11.0625 4.06427 11.0625 5.53125V5.53125C11.0625 6.54952 10.237 7.375 9.21875 7.375H1.84375C1.35476 7.375 0.885791 7.56925 0.54002 7.91502C0.19425 8.26079 0 8.72976 0 9.21875V57.1562C0 57.6452 0.19425 58.1142 0.54002 58.46C0.885791 58.8057 1.35476 59 1.84375 59H42.4062C42.8952 59 43.3642 58.8057 43.71 58.46C44.0557 58.1142 44.25 57.6452 44.25 57.1562V49.7812C44.25 49.2923 44.0557 48.8233 43.71 48.4775C43.3642 48.1318 42.8952 47.9375 42.4062 47.9375ZM14.75 5.53125C14.75 5.04226 14.9443 4.57329 15.29 4.22752C15.6358 3.88175 16.1048 3.6875 16.5938 3.6875H27.6562C28.1452 3.6875 28.6142 3.88175 28.96 4.22752C29.3057 4.57329 29.5 5.04226 29.5 5.53125V6.0825C29.5 7.93279 29.5 8.85794 29.1059 9.54888C28.8397 10.0156 28.4531 10.4022 27.9864 10.6684C27.2954 11.0625 26.3703 11.0625 24.52 11.0625H19.73C17.8797 11.0625 16.9546 11.0625 16.2636 10.6684C15.7969 10.4022 15.4103 10.0156 15.1441 9.54888C14.75 8.85794 14.75 7.93279 14.75 6.0825V5.53125ZM58.4616 22.6634L51.0866 15.2884C50.9154 15.1167 50.7119 14.9805 50.4879 14.8875C50.2639 14.7946 50.0238 14.7467 49.7812 14.7467C49.5387 14.7467 49.2986 14.7946 49.0746 14.8875C48.8506 14.9805 48.6471 15.1167 48.4759 15.2884L26.3509 37.4134C26.1798 37.5849 26.0442 37.7885 25.9518 38.0125C25.8594 38.2365 25.8121 38.4765 25.8125 38.7188V46.0938C25.8125 46.5827 26.0068 47.0517 26.3525 47.3975C26.6983 47.7432 27.1673 47.9375 27.6562 47.9375H35.0312C35.2735 47.9379 35.5135 47.8906 35.7375 47.7982C35.9615 47.7058 36.1651 47.5702 36.3366 47.3991L58.4616 25.2741C58.6333 25.1029 58.7695 24.8994 58.8625 24.6754C58.9554 24.4514 59.0033 24.2113 59.0033 23.9688C59.0033 23.7262 58.9554 23.4861 58.8625 23.2621C58.7695 23.0381 58.6333 22.8346 58.4616 22.6634ZM32.8714 44.25C32.5265 44.25 32.354 44.25 32.2087 44.2358C30.7822 44.0967 29.6533 42.9678 29.5142 41.5413C29.5 41.396 29.5 41.2235 29.5 40.8786V40.8786C29.5 40.7274 29.5 40.6518 29.5035 40.5789C29.5373 39.8847 29.8111 39.2238 30.2781 38.709C30.3271 38.655 30.3806 38.6015 30.4875 38.4946L47.3973 21.5848C47.6412 21.3409 47.7632 21.2189 47.8759 21.1262C48.983 20.2159 50.5795 20.2159 51.6866 21.1262C51.7993 21.2189 51.9213 21.3409 52.1652 21.5848V21.5848C52.4091 21.8287 52.5311 21.9507 52.6238 22.0634C53.5341 23.1705 53.5341 24.767 52.6238 25.8741C52.5311 25.9868 52.4091 26.1088 52.1652 26.3527L35.2554 43.2625C35.1485 43.3694 35.095 43.4229 35.041 43.4719C34.5262 43.9389 33.8653 44.2127 33.1711 44.2465C33.0982 44.25 33.0226 44.25 32.8714 44.25V44.25ZM22.125 46.0938C22.125 46.5827 21.9307 47.0517 21.585 47.3975C21.2392 47.7432 20.7702 47.9375 20.2812 47.9375H12.9062C12.4173 47.9375 11.9483 47.7432 11.6025 47.3975C11.2568 47.0517 11.0625 46.5827 11.0625 46.0938C11.0625 45.6048 11.2568 45.1358 11.6025 44.79C11.9483 44.4443 12.4173 44.25 12.9062 44.25H20.2812C20.7702 44.25 21.2392 44.4443 21.585 44.79C21.9307 45.1358 22.125 45.6048 22.125 46.0938ZM22.125 35.0312C22.125 35.5202 21.9307 35.9892 21.585 36.335C21.2392 36.6807 20.7702 36.875 20.2812 36.875H12.9062C12.4173 36.875 11.9483 36.6807 11.6025 36.335C11.2568 35.9892 11.0625 35.5202 11.0625 35.0312C11.0625 34.5423 11.2568 34.0733 11.6025 33.7275C11.9483 33.3818 12.4173 33.1875 12.9062 33.1875H20.2812C20.7702 33.1875 21.2392 33.3818 21.585 33.7275C21.9307 34.0733 22.125 34.5423 22.125 35.0312ZM31.3438 25.8125H12.9062C12.4173 25.8125 11.9483 25.6182 11.6025 25.2725C11.2568 24.9267 11.0625 24.4577 11.0625 23.9688C11.0625 23.4798 11.2568 23.0108 11.6025 22.665C11.9483 22.3193 12.4173 22.125 12.9062 22.125H31.3438C31.8327 22.125 32.3017 22.3193 32.6475 22.665C32.9932 23.0108 33.1875 23.4798 33.1875 23.9688C33.1875 24.4577 32.9932 24.9267 32.6475 25.2725C32.3017 25.6182 31.8327 25.8125 31.3438 25.8125Z" stroke="black" stroke-width="0.8" mask="url(#path-1-outside-1_167_219)"/>
</g>
</g>
<defs>
<filter id="filter0_d_167_219" x="-4.39999" y="-0.399994" width="67.8033" height="67.8" filterUnits="userSpaceOnUse" color-interpolation-filters="sRGB">
<feFlood flood-opacity="0" result="BackgroundImageFix"/>
<feColorMatrix in="SourceAlpha" type="matrix" values="0 0 0 0 0 0 0 0 0 0 0 0 0 0 0 0 0 0 127 0" result="hardAlpha"/>
<feOffset dy="4"/>
<feGaussianBlur stdDeviation="2"/>
<feComposite in2="hardAlpha" operator="out"/>
<feColorMatrix type="matrix" values="0 0 0 0 0 0 0 0 0 0 0 0 0 0 0 0 0 0 0.25 0"/>
<feBlend mode="normal" in2="BackgroundImageFix" result="effect1_dropShadow_167_219"/>
<feBlend mode="normal" in="SourceGraphic" in2="effect1_dropShadow_167_219" result="shape"/>
</filter>
<clipPath id="clip0_167_219">
<rect width="59" height="59" fill="white"/>
</clipPath>
</defs>
</svg>
